<svg width="25" height="22" viewBox="0 0 25 22" fill="none" xmlns="http://www.w3.org/2000/svg">
<path d="M24.9863 10.8043C24.9863 16.7713 19.3929 21.6085 12.4932 21.6085C5.59337 21.6085 0 16.7713 0 10.8043C0 4.83723 5.59337 0 12.4932 0C19.3929 0 24.9863 4.83723 24.9863 10.8043Z" fill="#FFB400"/>
<path d="M13.7077 11.5921H15.226L15.8333 9.4913H13.7077V8.44089C13.7077 7.89992 13.7077 7.39047 14.9223 7.39047H15.8333V5.62578C15.6353 5.60319 14.8877 5.55225 14.0982 5.55225C12.4493 5.55225 11.2785 6.42251 11.2785 8.02072V9.4913H9.45654V11.5921H11.2785V16.0564H13.7077V11.5921Z" fill="#2B2B2B"/>
</svg>
