<svg width="68" height="69" viewBox="0 0 68 69" fill="none" xmlns="http://www.w3.org/2000/svg">
<path d="M63.2188 7.80371H4.78125C3.79531 7.80481 2.85007 8.20023 2.1529 8.90323C1.45574 9.60622 1.06359 10.5594 1.0625 11.5536V49.052C1.06359 50.0461 1.45574 50.9993 2.1529 51.7023C2.85007 52.4053 3.79531 52.8007 4.78125 52.8018H26.0552L24.7802 56.0159H19.125C18.8432 56.0159 18.573 56.1288 18.3737 56.3297C18.1744 56.5307 18.0625 56.8032 18.0625 57.0873V59.2301H11.6875C11.4057 59.2301 11.1355 59.343 10.9362 59.5439C10.7369 59.7448 10.625 60.0173 10.625 60.3015C10.625 60.5856 10.7369 60.8581 10.9362 61.0591C11.1355 61.26 11.4057 61.3729 11.6875 61.3729H56.3125C56.5943 61.3729 56.8645 61.26 57.0638 61.0591C57.2631 60.8581 57.375 60.5856 57.375 60.3015C57.375 60.0173 57.2631 59.7448 57.0638 59.5439C56.8645 59.343 56.5943 59.2301 56.3125 59.2301H49.9375V57.0873C49.9375 56.8032 49.8256 56.5307 49.6263 56.3297C49.427 56.1288 49.1568 56.0159 48.875 56.0159H43.2198L41.9448 52.8018H63.2188C64.2047 52.8007 65.1499 52.4053 65.8471 51.7023C66.5443 50.9993 66.9364 50.0461 66.9375 49.052V11.5536C66.9364 10.5594 66.5443 9.60622 65.8471 8.90323C65.1499 8.20023 64.2047 7.80481 63.2188 7.80371ZM47.8125 58.1587V59.2301H20.1875V58.1587H47.8125ZM27.0698 56.0159L28.3448 52.8018H39.6552L40.9302 56.0159H27.0698ZM64.8125 49.052C64.8121 49.4781 64.6441 49.8866 64.3453 50.1879C64.0465 50.4892 63.6413 50.6587 63.2188 50.659H4.78125C4.35867 50.6587 3.9535 50.4892 3.65469 50.1879C3.35588 49.8866 3.18785 49.4781 3.1875 49.052V46.3735H64.8125V49.052ZM64.8125 44.2307H3.1875V11.5536C3.18785 11.1274 3.35588 10.7189 3.65469 10.4176C3.9535 10.1163 4.35867 9.94683 4.78125 9.94648H63.2188C63.6413 9.94683 64.0465 10.1163 64.3453 10.4176C64.6441 10.7189 64.8121 11.1274 64.8125 11.5536V44.2307Z" fill="#FFB400"/>
<path d="M29.1671 35.4841C29.2838 35.5613 29.4144 35.6146 29.5514 35.6409C29.6885 35.6672 29.8294 35.666 29.966 35.6374C30.1026 35.6088 30.2323 35.5533 30.3477 35.4742C30.4631 35.395 30.5618 35.2937 30.6384 35.1761L39.0056 22.3195C39.1602 22.0819 39.2149 21.7922 39.1577 21.5139C39.1005 21.2357 38.936 20.9918 38.7004 20.8359C38.4648 20.68 38.1774 20.6248 37.9015 20.6825C37.6256 20.7402 37.3837 20.9061 37.2291 21.1436L28.8619 34.0002C28.7853 34.1179 28.7324 34.2496 28.7063 34.3878C28.6802 34.526 28.6813 34.6681 28.7096 34.8059C28.738 34.9437 28.793 35.0745 28.8715 35.1909C28.9499 35.3073 29.0504 35.4069 29.1671 35.4841Z" fill="#FFB400"/>
<path d="M40.7573 35.4115C40.9738 35.5934 41.2531 35.6811 41.5337 35.6554C41.8143 35.6296 42.0733 35.4925 42.2537 35.2742L47.5662 28.8459C47.7253 28.6534 47.8124 28.4107 47.8124 28.1601C47.8124 27.9095 47.7253 27.6668 47.5662 27.4743L42.2537 21.046C42.1647 20.937 42.0551 20.8468 41.9314 20.7807C41.8077 20.7145 41.6723 20.6736 41.5328 20.6604C41.3934 20.6473 41.2528 20.662 41.119 20.7038C40.9853 20.7456 40.861 20.8137 40.7534 20.904C40.6459 20.9944 40.5571 21.1054 40.4921 21.2305C40.4272 21.3556 40.3875 21.4924 40.3752 21.6331C40.3629 21.7738 40.3783 21.9155 40.4205 22.0501C40.4627 22.1848 40.5309 22.3096 40.6212 22.4176L45.3668 28.1601L40.6212 33.9026C40.4408 34.1209 40.3538 34.4025 40.3793 34.6855C40.4049 34.9684 40.5408 35.2296 40.7573 35.4115Z" fill="#FFB400"/>
<path d="M25.7462 35.2742C25.8352 35.3832 25.9448 35.4734 26.0685 35.5395C26.1922 35.6057 26.3276 35.6465 26.4671 35.6597C26.6065 35.6729 26.7471 35.6582 26.8809 35.6164C27.0146 35.5746 27.1389 35.5065 27.2465 35.4161C27.354 35.3258 27.4428 35.2148 27.5078 35.0897C27.5727 34.9646 27.6124 34.8278 27.6247 34.6871C27.637 34.5464 27.6216 34.4047 27.5794 34.2701C27.5372 34.1354 27.469 34.0105 27.3787 33.9026L22.6331 28.1601L27.3787 22.4176C27.469 22.3096 27.5372 22.1847 27.5794 22.0501C27.6216 21.9155 27.637 21.7738 27.6247 21.6331C27.6124 21.4924 27.5727 21.3556 27.5078 21.2305C27.4428 21.1054 27.354 20.9944 27.2465 20.904C27.1389 20.8137 27.0146 20.7456 26.8809 20.7038C26.7471 20.662 26.6065 20.6473 26.4671 20.6604C26.3276 20.6736 26.1922 20.7145 26.0685 20.7807C25.9448 20.8468 25.8352 20.937 25.7462 21.046L20.4337 27.4743C20.2746 27.6668 20.1875 27.9095 20.1875 28.1601C20.1875 28.4107 20.2746 28.6534 20.4337 28.8459L25.7462 35.2742Z" fill="#FFB400"/>
</svg>
