<svg width="74" height="76" viewBox="0 0 74 76" fill="none" xmlns="http://www.w3.org/2000/svg">
<path d="M32.375 38.8696H41.625V41.2015H32.375V38.8696Z" fill="#FFB400"/>
<path d="M35.8438 35.3721H38.1562V44.6994H35.8438V35.3721Z" fill="#FFB400"/>
<path d="M65.9062 38.8696H68.2188V41.2015H65.9062V38.8696Z" fill="#FFB400"/>
<path d="M56.6562 38.8696H58.9688V41.2015H56.6562V38.8696Z" fill="#FFB400"/>
<path d="M61.2812 34.2061H63.5938V36.5379H61.2812V34.2061Z" fill="#FFB400"/>
<path d="M61.2812 43.5332H63.5938V45.865H61.2812V43.5332Z" fill="#FFB400"/>
<path d="M10.6597 20.9437L5.45654 14.3854L10.6597 7.82715L12.4652 9.28454L8.4183 14.3854L12.4652 19.4863L10.6597 20.9437Z" fill="#FFB400"/>
<path d="M28.6527 20.9437L26.8472 19.4863L30.8952 14.3854L26.8472 9.28454L28.6527 7.82715L33.8547 14.3854L28.6527 20.9437Z" fill="#FFB400"/>
<path d="M14.7378 18.2801L22.8338 8.95508L24.5738 10.4905L16.4778 19.8161L14.7378 18.2801Z" fill="#FFB400"/>
<path d="M9.25 51.6949H4.625V47.0312H6.9375V49.3631H9.25V51.6949Z" fill="#FFB400"/>
<path d="M70.5312 2.72656H3.46875C1.55315 2.72656 0 4.29269 0 6.22431V52.861C0 54.7926 1.55315 56.3587 3.46875 56.3587H27.75V62.1883C27.75 64.1199 26.1969 65.6861 24.2812 65.6861H18.5V72.6816H55.5V65.6861H49.7188C47.8031 65.6861 46.25 64.1199 46.25 62.1883V56.3587H70.5312C72.4469 56.3587 74 54.7926 74 52.861V6.22431C74 4.29269 72.4469 2.72656 70.5312 2.72656ZM53.1875 68.0179V70.3497H20.8125V68.0179H53.1875ZM37 63.4032C38.9156 63.4032 40.4688 61.8371 40.4688 59.9054V56.3587H43.9375V62.1883C43.942 63.4539 44.3587 64.683 45.1237 65.6861H28.8763C29.6413 64.683 30.058 63.4539 30.0625 62.1883V56.3587H33.5312V59.9054C33.5312 61.8371 35.0844 63.4032 37 63.4032ZM35.8438 59.9054V56.3587H38.1562V59.9054C38.1562 60.5493 37.6385 61.0714 37 61.0714C36.3615 61.0714 35.8438 60.5493 35.8438 59.9054ZM71.6875 52.861C71.6875 53.5049 71.1698 54.0269 70.5312 54.0269H3.46875C2.83022 54.0269 2.3125 53.5049 2.3125 52.861V42.3677H25.669C26.6265 47.1139 30.3956 50.7677 35.1369 51.5448C39.8776 52.3224 44.6009 50.0612 47.0003 45.8655H52.4349C54.3725 49.2625 57.8774 51.4469 61.7572 51.6757C65.6369 51.9046 69.3699 50.1471 71.6875 47.0012V52.861ZM62.4375 49.3632C58.923 49.3718 55.7112 47.3599 54.1608 44.1798L53.8407 43.5336H45.5968L45.2767 44.1798C43.2487 48.3026 38.5419 50.3185 34.1918 48.9266C29.8412 47.5341 27.1482 43.1511 27.8494 38.603C28.55 34.0555 32.436 30.7034 37 30.7086H62.4375C67.5463 30.7086 71.6875 34.8843 71.6875 40.0359C71.6875 45.1874 67.5463 49.3632 62.4375 49.3632ZM71.6875 33.0706C69.5128 30.1205 66.083 28.3801 62.4375 28.3767H37C30.6169 28.3836 25.4443 33.5994 25.4375 40.0359H2.3125V6.22431C2.3125 5.58044 2.83022 5.0584 3.46875 5.0584H70.5312C71.1698 5.0584 71.6875 5.58044 71.6875 6.22431V33.0706Z" fill="#FFB400"/>
<path d="M47.4062 38.8696H52.0312V41.2015H47.4062V38.8696Z" fill="#FFB400"/>
<path d="M34.6875 9.72168H43.9375V12.0535H34.6875V9.72168Z" fill="#FFB400"/>
<path d="M48.5625 9.72168H67.0625V12.0535H48.5625V9.72168Z" fill="#FFB400"/>
<path d="M50.875 14.3857H67.0625V16.7176H50.875V14.3857Z" fill="#FFB400"/>
<path d="M37 14.3857H46.25V16.7176H37V14.3857Z" fill="#FFB400"/>
<path d="M34.6875 19.0493H57.8125V21.3811H34.6875V19.0493Z" fill="#FFB400"/>
<path d="M62.4375 19.0493H67.0625V21.3811H62.4375V19.0493Z" fill="#FFB400"/>
<path d="M6.9375 23.7129H18.5V26.0447H6.9375V23.7129Z" fill="#FFB400"/>
<path d="M23.125 23.7129H45.0938V26.0447H23.125V23.7129Z" fill="#FFB400"/>
<path d="M48.5625 23.7129H67.0625V26.0447H48.5625V23.7129Z" fill="#FFB400"/>
<path d="M6.9375 28.3765H25.4375V30.7083H6.9375V28.3765Z" fill="#FFB400"/>
<path d="M6.9375 33.04H16.1875V35.3719H6.9375V33.04Z" fill="#FFB400"/>
<path d="M18.5 33.04H23.125V35.3719H18.5V33.04Z" fill="#FFB400"/>
</svg>
