<svg width="76" height="77" viewBox="0 0 76 77" fill="none" xmlns="http://www.w3.org/2000/svg">
<g clip-path="url(#clip0_2_621)">
<path d="M35.3281 55.8413C34.7131 55.8413 34.2148 56.3439 34.2148 56.9639C34.2148 57.5839 34.7131 58.0865 35.3281 58.0865H40.6719C41.2869 58.0865 41.7852 57.5839 41.7852 56.9639C41.7852 56.3439 41.2869 55.8413 40.6719 55.8413H35.3281Z" fill="#FFB400"/>
<path d="M13.3594 38.4104H20.7183C21.1678 39.59 22.3002 40.431 23.6264 40.431C24.9525 40.431 26.0849 39.59 26.5344 38.4104H28.0053C28.6202 38.4104 29.1185 37.9077 29.1185 37.2878C29.1185 36.6678 28.6202 36.1652 28.0053 36.1652H26.5344C26.0849 34.9856 24.9525 34.1445 23.6264 34.1445C22.3002 34.1445 21.1678 34.9856 20.7183 36.1652H13.3594C12.7444 36.1652 12.2461 36.6678 12.2461 37.2878C12.2461 37.9077 12.7444 38.4104 13.3594 38.4104ZM23.6264 36.3897C24.1175 36.3897 24.517 36.7925 24.517 37.2878C24.517 37.7831 24.1175 38.1859 23.6264 38.1859C23.1352 38.1859 22.7357 37.7831 22.7357 37.2878C22.7357 36.7925 23.1352 36.3897 23.6264 36.3897Z" fill="#FFB400"/>
<path d="M13.3594 31.9738H14.7808C15.2303 33.1535 16.3627 33.9945 17.6889 33.9945C19.015 33.9945 20.1474 33.1535 20.5969 31.9738H28.0053C28.6202 31.9738 29.1185 31.4712 29.1185 30.8513C29.1185 30.2313 28.6202 29.7287 28.0053 29.7287H20.5969C20.1474 28.5491 19.015 27.708 17.6889 27.708C16.3627 27.708 15.2303 28.5491 14.7808 29.7287H13.3594C12.7444 29.7287 12.2461 30.2313 12.2461 30.8513C12.2461 31.4712 12.7444 31.9738 13.3594 31.9738ZM17.6889 29.9532C18.18 29.9532 18.5795 30.356 18.5795 30.8513C18.5795 31.3465 18.18 31.7493 17.6889 31.7493C17.1977 31.7493 16.7982 31.3465 16.7982 30.8513C16.7982 30.356 17.1977 29.9532 17.6889 29.9532Z" fill="#FFB400"/>
<path d="M28.228 21.6461C28.8429 21.6461 29.3413 21.1435 29.3413 20.5235C29.3413 19.9035 28.8429 19.4009 28.228 19.4009C27.6132 19.4009 27.1147 19.9035 27.1147 20.5235C27.1147 21.1435 27.6132 21.6461 28.228 21.6461Z" fill="#FFB400"/>
<path d="M25.1602 21.6461C25.775 21.6461 26.2734 21.1435 26.2734 20.5235C26.2734 19.9035 25.775 19.4009 25.1602 19.4009C24.5453 19.4009 24.0469 19.9035 24.0469 20.5235C24.0469 21.1435 24.5453 21.6461 25.1602 21.6461Z" fill="#FFB400"/>
<path d="M22.0923 21.6461C22.7071 21.6461 23.2056 21.1435 23.2056 20.5235C23.2056 19.9035 22.7071 19.4009 22.0923 19.4009C21.4774 19.4009 20.979 19.9035 20.979 20.5235C20.979 21.1435 21.4774 21.6461 22.0923 21.6461Z" fill="#FFB400"/>
<path d="M72.6602 7.79328H72.2432L72.5542 7.4797C73.4856 6.54047 73.4856 5.0121 72.5542 4.07287L70.1171 1.61545C69.1857 0.676362 67.6701 0.676362 66.7385 1.61545L60.6124 7.79313H3.33984C1.49833 7.79313 0 9.30383 0 11.1609V57.7804C0 60.0501 1.83113 61.8965 4.08203 61.8965H30.4512V69.8377H25.0859C23.6537 69.8377 22.4883 71.0128 22.4883 72.4571V73.5788C22.4883 75.023 23.6537 76.1981 25.0859 76.1981H50.9141C52.3463 76.1981 53.5117 75.023 53.5117 73.5788V72.4571C53.5117 71.0128 52.3463 69.8377 50.9141 69.8377H45.5488V61.8965H57.4453C58.0603 61.8965 58.5586 61.3939 58.5586 60.7739C58.5586 60.154 58.0603 59.6513 57.4453 59.6513H4.08203C3.05885 59.6513 2.22656 58.8121 2.22656 57.7804V54.4575H73.7734V57.7804C73.7734 58.8121 72.9411 59.6513 71.918 59.6513H62.6406C62.0257 59.6513 61.5273 60.154 61.5273 60.7739C61.5273 61.3939 62.0257 61.8965 62.6406 61.8965H71.918C74.1689 61.8965 76 60.0501 76 57.7804V11.161C76 9.30413 74.5017 7.79328 72.6602 7.79328ZM50.9141 72.083C51.1188 72.083 51.2852 72.251 51.2852 72.4572V73.5789C51.2852 73.7852 51.1188 73.9531 50.9141 73.9531H25.0859C24.8812 73.9531 24.7148 73.7852 24.7148 73.5789V72.4572C24.7148 72.251 24.8812 72.083 25.0859 72.083H50.9141ZM32.6778 61.8968H43.3224V69.838H32.6778V61.8968ZM68.313 3.20323C68.3765 3.13932 68.4796 3.13947 68.5428 3.20323L70.9797 5.66051C71.0431 5.72442 71.0431 5.82845 70.9797 5.89221L68.6544 8.23692L65.9877 5.54795L68.313 3.20323ZM64.4133 7.13559L67.0798 9.82456L66.3033 10.6075L63.6368 7.91856L64.4133 7.13559ZM62.0623 9.5062L64.729 12.1952L51.555 25.4793L48.8883 22.7903L62.0623 9.5062ZM60.4141 19.7695C61.9283 19.7695 63.1602 21.0117 63.1602 22.5386C63.1602 24.0654 61.9283 25.3076 60.4141 25.3076C58.8999 25.3076 57.668 24.0654 57.668 22.5386C57.668 22.5207 57.6703 22.5035 57.6706 22.4857L60.3621 19.7722C60.3795 19.7719 60.3965 19.7695 60.4141 19.7695ZM49.6218 26.7052L46.3269 28.0621L47.6726 24.7397L49.6218 26.7052ZM73.7734 52.2126H2.22656V11.161C2.22656 10.5421 2.72591 10.0385 3.33984 10.0385H58.386L56.6884 11.7502H18.8516C18.2366 11.7502 17.7383 12.2528 17.7383 12.8728C17.7383 13.4927 18.2366 13.9954 18.8516 13.9954H54.462L46.6095 21.9139C46.3876 22.1397 46.2141 22.4031 46.0946 22.698L43.6078 28.8372C43.3797 29.401 43.5082 30.0436 43.9353 30.4741C44.2219 30.7631 44.6031 30.9164 44.9919 30.9164C45.1824 30.9164 45.3747 30.8795 45.5586 30.8039L51.6468 28.2965C51.9309 28.1795 52.185 28.0101 52.4047 27.7953L55.7914 24.3806C56.521 26.2365 58.3171 27.5529 60.4142 27.5529C63.1562 27.5529 65.3869 25.3036 65.3869 22.5387C65.3869 20.4243 64.0817 18.6134 62.2415 17.8776L66.0918 13.9955H69.8493V48.2559H69.2593L65.2248 41.2094C64.9175 40.6724 64.2362 40.4884 63.704 40.7986C63.1716 41.1086 62.9892 41.7951 63.2966 42.332L66.6884 48.2559H51.1366L49.4686 45.3427L57.2445 31.7619L60.6988 37.7951C61.0063 38.332 61.6872 38.5161 62.2195 38.206C62.752 37.896 62.9344 37.2094 62.627 36.6725L58.9417 30.2362C58.5874 29.6174 57.953 29.248 57.2443 29.248C56.5357 29.248 55.9011 29.6174 55.5468 30.2362L48.1828 43.0976L38.7342 26.5954C38.3799 25.9767 37.7454 25.6073 37.0366 25.6073C36.3281 25.6073 35.6936 25.9767 35.3393 26.5954L32.829 30.9797V18.9466C32.829 17.5023 31.6636 16.3272 30.2314 16.3272H11.1328C9.70054 16.3272 8.53516 17.5023 8.53516 18.9466V43.4938C8.53516 44.5256 9.36744 45.3648 10.3906 45.3648H24.593L22.9376 48.256H6.1508V13.9954H13.6562C14.2712 13.9954 14.7695 13.4927 14.7695 12.8728C14.7695 12.2528 14.2712 11.7502 13.6562 11.7502H5.77971C4.75653 11.7502 3.92424 12.5894 3.92424 13.6212V48.6299C3.92424 49.6616 4.75653 50.5009 5.77971 50.5009H70.2204C71.2436 50.5009 72.0759 49.6616 72.0759 48.6299V13.6212C72.0759 12.5894 71.2436 11.7502 70.2204 11.7502H68.3187L70.0165 10.0385H72.6602C73.2741 10.0385 73.7734 10.5421 73.7734 11.161V52.2126ZM30.6029 25.1636V43.1193H10.7617V25.1636H30.6029ZM10.7617 22.9184V18.9463C10.7617 18.74 10.9281 18.5721 11.1328 18.5721H30.2318C30.4365 18.5721 30.6029 18.74 30.6029 18.9463V22.9184H10.7617ZM27.1641 45.3645H30.974C31.9972 45.3645 32.8295 44.5253 32.8295 43.4935V41.1156C33.1079 41.2503 33.418 41.3232 33.7428 41.3232C34.5028 41.3232 35.1833 40.9269 35.5631 40.2633L37.4578 36.9544C37.5151 36.8544 37.6026 36.8333 37.6657 36.8333C37.7291 36.8333 37.8167 36.8544 37.8738 36.9544L39.0419 38.9944C39.4219 39.6582 40.1025 40.0544 40.8626 40.0544C41.6226 40.0544 42.3032 39.6582 42.6831 38.9945L42.9731 38.488L48.5656 48.2556H25.5087L27.1641 45.3645ZM32.8295 37.3578V35.4697L37.0372 28.121L41.6875 36.2428L40.8625 37.6836L39.802 35.8316C39.3561 35.0529 38.5575 34.588 37.6656 34.588C36.7738 34.588 35.9752 35.0529 35.5293 35.8316L33.7424 38.9524L32.8295 37.3578Z" fill="#FFB400"/>
</g>
<defs>
<clipPath id="clip0_2_621">
<rect width="76" height="76.6354" fill="white" transform="translate(0 0.237305)"/>
</clipPath>
</defs>
</svg>
