<svg width="74" height="75" viewBox="0 0 74 75" fill="none" xmlns="http://www.w3.org/2000/svg">
<g clip-path="url(#clip0_2_6333)">
<path d="M37.0002 0.279297C29.0179 0.279297 22.522 7.08906 22.522 15.4577V37.5886C22.522 45.9589 29.0179 52.767 37.0002 52.767C44.9826 52.767 51.4785 45.9589 51.4785 37.5886V15.4577C51.4785 7.08906 44.9826 0.279297 37.0002 0.279297ZM37.0002 49.5228C31.3119 49.5228 26.6065 45.0245 25.8552 39.2108H48.1437C47.394 45.0262 42.6886 49.5228 37.0002 49.5228ZM48.2611 35.9665H25.7394V15.4577C25.7394 8.87667 30.7907 3.52359 37.0002 3.52359C43.2098 3.52359 48.2611 8.87667 48.2611 15.4577V35.9665Z" fill="#FFB400"/>
<path d="M59.5218 29.478C58.6338 29.478 57.9131 30.2047 57.9131 31.1002V37.5888C57.9131 49.2163 48.5312 58.6766 37.0001 58.6766C25.4689 58.6766 16.087 49.2163 16.087 37.5888V31.1002C16.087 30.2047 15.3663 29.478 14.4783 29.478C13.5903 29.478 12.8696 30.2047 12.8696 31.1002V37.5888C12.8696 50.4572 22.8355 60.9979 35.3914 61.8382V71.6538H27.3479C26.4599 71.6538 25.7392 72.3805 25.7392 73.2759C25.7392 74.1714 26.4599 74.8981 27.3479 74.8981H46.6522C47.5402 74.8981 48.2609 74.1714 48.2609 73.2759C48.2609 72.3805 47.5402 71.6538 46.6522 71.6538H38.6088V61.8382C51.1646 60.9979 61.1305 50.4572 61.1305 37.5888V31.1002C61.1305 30.2047 60.4098 29.478 59.5218 29.478Z" fill="#FFB400"/>
</g>
<defs>
<clipPath id="clip0_2_6333">
<rect width="74" height="74.6187" fill="white" transform="translate(0 0.279297)"/>
</clipPath>
</defs>
</svg>
