<svg width="78" height="79" viewBox="0 0 78 79" fill="none" xmlns="http://www.w3.org/2000/svg">
<g clip-path="url(#clip0_2_639)">
<path d="M55.3546 73.9054H74.7125L69.7431 58.8714C68.4435 54.9401 65.1273 52.0249 61.0876 51.2612L47.8062 48.7494V45.6503C50.9879 43.3351 53.2335 39.8085 53.8852 35.7414C56.8543 35.2352 59.1288 32.641 59.1288 29.505V20.625C59.1288 9.43352 50.0984 0.327637 38.9998 0.327637C27.9011 0.327637 18.8708 9.43352 18.8708 20.625V29.505C18.8708 32.6372 21.134 35.2466 24.098 35.7579C24.7522 39.825 27.0104 43.3554 30.1933 45.6693V48.7507L16.9107 51.2625C12.8723 52.0262 9.55479 54.9414 8.25521 58.8727L3.28711 73.9054H22.645V71.3683H19.2243L21.3491 62.7952L18.9085 62.1812L16.6301 71.3683H6.77698L10.643 59.6745C11.6532 56.6172 14.2335 54.349 17.3749 53.754L25.3888 52.2393L27.4382 61.5355C26.0996 62.1216 25.1611 63.4637 25.1611 65.0253V75.174C25.1611 77.2722 26.8544 78.9797 28.9353 78.9797H49.0643C51.1452 78.9797 52.8385 77.2722 52.8385 75.174V65.0253C52.8385 63.4637 51.9 62.1216 50.5627 61.5355L52.6121 52.2393L60.6259 53.754C63.7673 54.349 66.3463 56.6172 67.3578 59.6745L71.2226 71.3683H61.3694L59.0911 62.1812L56.6504 62.7952L58.7753 71.3683H55.3546V73.9054ZM50.1374 51.7712L48.4001 59.6542L47.5307 56.1453H42.0368L46.9684 51.1724L50.1374 51.7712ZM46.1947 61.2196H31.8049L32.434 58.6824H45.5656L46.1947 61.2196ZM38.9998 55.6201L32.7095 49.2772V47.1383C34.6268 48.0289 36.7542 48.5338 38.9998 48.5338C41.2467 48.5338 43.3728 48.0225 45.2901 47.132V49.2772L38.9998 55.6201ZM54.0966 33.0774V25.934C55.5572 26.4592 56.6127 27.8546 56.6127 29.5063C56.6127 31.158 55.5572 32.5522 54.0966 33.0774ZM23.903 33.0939C22.4386 32.5699 21.3869 31.1593 21.3869 29.505C21.3869 27.8508 22.4386 26.4401 23.903 25.9162V33.0939ZM21.3869 24.4637V20.625C21.3869 10.8315 29.2875 2.8648 38.9998 2.8648C48.7121 2.8648 56.6127 10.8315 56.6127 20.625V24.4637C55.8679 23.8954 55.0074 23.4755 54.0563 23.2864C53.8588 21.7882 52.5982 20.625 51.0596 20.625C50.2607 20.625 49.4782 20.9522 48.8492 21.5865C46.7243 23.7292 44.0321 25.0954 41.1159 25.5394L41.1964 25.3771C41.4052 24.9534 41.5159 24.4802 41.5159 24.007V23.6873C41.5159 21.9988 40.1534 20.625 38.479 20.625C37.6801 20.625 36.8976 20.9522 36.3314 21.5218C33.6807 24.1935 30.1644 25.6752 26.4191 25.6993V23.1621H25.1611C23.7395 23.1621 22.4411 23.6581 21.3869 24.4637ZM26.4191 33.3108V28.2365C30.8362 28.2123 34.9853 26.4668 38.1091 23.3169C38.4123 23.0099 38.9998 23.2598 38.9998 23.6873V24.007C38.9998 24.0882 38.9809 24.1694 38.9444 24.243L36.9642 28.2365H38.9998C43.393 28.2365 47.5219 26.5124 50.6897 23.3169C50.9942 23.0099 51.5804 23.2598 51.5804 23.6873V33.3108C51.5804 40.3057 45.9368 45.9966 38.9998 45.9966C32.0628 45.9966 26.4191 40.3057 26.4191 33.3108ZM31.0312 51.1724L35.9628 56.1453H30.4689L29.5995 59.6542L27.8621 51.7712L31.0312 51.1724ZM28.9353 76.4426C28.2421 76.4426 27.6772 75.8743 27.6772 75.174V65.0253C27.6772 64.3251 28.2421 63.7568 28.9353 63.7568H32.8491C31.2124 65.3704 30.1933 67.6158 30.1933 70.0997C30.1933 72.5835 31.2124 74.8289 32.8491 76.4426H28.9353ZM38.9998 76.4426C35.5313 76.4426 32.7095 73.5972 32.7095 70.0997C32.7095 66.6022 35.5313 63.7568 38.9998 63.7568C42.4683 63.7568 45.2901 66.6022 45.2901 70.0997C45.2901 73.5972 42.4683 76.4426 38.9998 76.4426ZM50.3224 75.174C50.3224 75.8743 49.7575 76.4426 49.0643 76.4426H45.1505C46.7872 74.8289 47.8062 72.5835 47.8062 70.0997C47.8062 67.6158 46.7872 65.3704 45.1505 63.7568H49.0643C49.7575 63.7568 50.3224 64.3251 50.3224 65.0253V75.174Z" fill="#FFB400"/>
<path d="M38.9998 66.2939C36.9189 66.2939 35.2256 68.0015 35.2256 70.0997C35.2256 72.1979 36.9189 73.9054 38.9998 73.9054C41.0806 73.9054 42.774 72.1979 42.774 70.0997C42.774 68.0015 41.0806 66.2939 38.9998 66.2939ZM38.9998 71.3683C38.3066 71.3683 37.7417 70.8 37.7417 70.0997C37.7417 69.3994 38.3066 68.8311 38.9998 68.8311C39.693 68.8311 40.2578 69.3994 40.2578 70.0997C40.2578 70.8 39.693 71.3683 38.9998 71.3683Z" fill="#FFB400"/>
</g>
<defs>
<clipPath id="clip0_2_639">
<rect width="78" height="78.6521" fill="white" transform="translate(0 0.327637)"/>
</clipPath>
</defs>
</svg>
