<svg width="40" height="40" viewBox="0 0 40 40" fill="none" xmlns="http://www.w3.org/2000/svg">
<path d="M40 20C40 31.0457 31.0457 40 20 40C8.9543 40 0 31.0457 0 20C0 8.9543 8.9543 0 20 0C31.0457 0 40 8.9543 40 20Z" fill="#FFB400"/>
<path d="M26 25.9999C26 26.1989 25.921 26.3896 25.7803 26.5303C25.6397 26.6709 25.4489 26.7499 25.25 26.7499H14.75C14.5511 26.7499 14.3603 26.6709 14.2197 26.5303C14.079 26.3896 14 26.1989 14 25.9999V19.2499H11.75L19.4952 12.2089C19.6333 12.0833 19.8133 12.0137 20 12.0137C20.1867 12.0137 20.3667 12.0833 20.5048 12.2089L28.25 19.2499H26V25.9999Z" fill="#2B2B2B"/>
</svg>
