<svg width="65" height="33" viewBox="0 0 65 33" fill="none" xmlns="http://www.w3.org/2000/svg">
<path fill-rule="evenodd" clip-rule="evenodd" d="M2 0C0.895431 0 0 0.89543 0 2V22C0 23.1046 0.89543 24 2 24H26.8039L32 33L37.1962 24H63C64.1046 24 65 23.1046 65 22V2C65 0.895431 64.1046 0 63 0H2Z" fill="#2B2B2B"/>
<path d="M15.9587 18.0002H17.2755V14.1948H21.6264V18.0002H22.9474V9.27295H21.6264V13.0656H17.2755V9.27295H15.9587V18.0002Z" fill="white"/>
<path d="M27.5198 18.1323C29.365 18.1323 30.571 16.7815 30.571 14.7573C30.571 12.7204 29.365 11.3695 27.5198 11.3695C25.6746 11.3695 24.4687 12.7204 24.4687 14.7573C24.4687 16.7815 25.6746 18.1323 27.5198 18.1323ZM27.5241 17.0627C26.3181 17.0627 25.7556 16.0102 25.7556 14.7531C25.7556 13.5002 26.3181 12.4349 27.5241 12.4349C28.7215 12.4349 29.284 13.5002 29.284 14.7531C29.284 16.0102 28.7215 17.0627 27.5241 17.0627Z" fill="white"/>
<path d="M31.9932 18.0002H33.2673V13.9647C33.2673 13.0826 33.8852 12.469 34.6097 12.469C35.317 12.469 35.8071 12.9377 35.8071 13.6494V18.0002H37.077V13.8283C37.077 13.04 37.5585 12.469 38.3895 12.469C39.0628 12.469 39.6168 12.844 39.6168 13.7303V18.0002H40.8909V13.611C40.8909 12.1153 40.0557 11.3695 38.871 11.3695C37.9293 11.3695 37.2219 11.8212 36.9065 12.5201H36.8384C36.5528 11.8042 35.952 11.3695 35.0784 11.3695C34.2134 11.3695 33.5699 11.7999 33.2972 12.5201H33.2162V11.4548H31.9932V18.0002Z" fill="white"/>
<path d="M45.4197 18.1323C46.8472 18.1323 47.8572 17.4292 48.147 16.3639L46.941 16.1465C46.7109 16.7644 46.1569 17.0798 45.4325 17.0798C44.3416 17.0798 43.6086 16.3724 43.5745 15.111H48.2279V14.6593C48.2279 12.2943 46.8131 11.3695 45.3302 11.3695C43.5063 11.3695 42.3046 12.7587 42.3046 14.7701C42.3046 16.8028 43.4893 18.1323 45.4197 18.1323ZM43.5788 14.1565C43.6299 13.2275 44.3032 12.4221 45.3387 12.4221C46.3273 12.4221 46.9751 13.1551 46.9793 14.1565H43.5788Z" fill="white"/>
</svg>
